PathFileType	4	(X/Y/Z)	C:\Users\Graham\Documents\MATLAB\MOtoNMS_v2_2\MyData\ElaboratedData\S3\17-05-18\staticElaborations\Static1\Static1\\Static1.trc
DataRate	CameraRate	NumFrames	NumMarkers	Units	OrigDataRate	DataStartFrame
100	100	4	38	mm	100	2
Frame#	Time	V_Sacral			R_ASIS			L_ASIS			R_Knee_Lat			R_Knee_Med			R_Thigh_Upper			R_Thigh_Front			R_Thigh_Rear			L_Knee_Lat			L_Knee_Med			L_Thigh_Upper			L_Thigh_Front			L_Thigh_Rear			R_Ankle_Lat			R_Ankle_Med			R_Shank_Upper			R_Shank_Front			R_Shank_Rear			L_Ankle_Lat			L_Ankle_Med			L_Shank_Upper			L_Shank_Front			L_Shank_Rear			R_Heel			R_MTP1			R_MTP5			L_Heel			L_MTP1			L_MTP5			Clavicle			R_Acromium			L_Acromium			LAJC			RAJC			LHJC			RHJC			LKJC			RKJC		
		X1	Y1	Z1	X2	Y2	Z2	X3	Y3	Z3	X4	Y4	Z4	X5	Y5	Z5	X6	Y6	Z6	X7	Y7	Z7	X8	Y8	Z8	X9	Y9	Z9	X10	Y10	Z10	X11	Y11	Z11	X12	Y12	Z12	X13	Y13	Z13	X14	Y14	Z14	X15	Y15	Z15	X16	Y16	Z16	X17	Y17	Z17	X18	Y18	Z18	X19	Y19	Z19	X20	Y20	Z20	X21	Y21	Z21	X22	Y22	Z22	X23	Y23	Z23	X24	Y24	Z24	X25	Y25	Z25	X26	Y26	Z26	X27	Y27	Z27	X28	Y28	Z28	X29	Y29	Z29	X30	Y30	Z30	X31	Y31	Z31	X32	Y32	Z32	X33	Y33	Z33	X34	Y34	Z34	X35	Y35	Z35	X36	Y36	Z36	X37	Y37	Z37	X38	Y38	Z38	

77	0.760000	-50.561828	1039.439798	54.726018	144.566123	1004.863119	183.419903	145.306073	1003.230189	-63.194522	50.997887	522.879811	177.951916	30.064890	516.788941	62.833099	145.921188	741.192984	181.160290	137.012184	650.349185	140.845962	105.901657	650.551394	184.350673	58.350178	524.172110	-109.629501	55.293354	513.107698	9.766288	151.921820	777.175392	-88.810583	153.077177	675.397061	-53.929737	118.543664	676.636516	-103.595580	-8.504053	99.943547	146.574037	1.199400	111.944819	65.433333	60.647072	319.757575	135.305583	45.100723	226.939923	99.616998	35.068622	223.015358	157.290625	-6.042211	108.908133	-131.320399	5.061591	105.105752	-51.068262	64.761728	302.011642	-82.404669	47.774467	208.787017	-55.616750	53.396917	213.255591	-114.765287	-70.630130	49.574583	106.179035	138.495470	55.606985	81.382888	107.507791	51.027859	159.650378	-70.411890	51.510348	-104.850805	135.502208	53.396811	-76.458695	111.203108	49.926525	-153.470644	78.417356	1402.599011	70.376159	-4.591154	1422.011471	232.746599	16.823608	1439.347506	-107.025749	-0.490310	107.006943	-91.194331	-3.652326	105.944183	106.003685	73.390342	930.203752	-28.300290	72.858169	931.378156	149.064845	56.821766	518.639904	-49.931607	40.531388	519.834376	120.392507	
78	0.770000	-50.548127	1039.448112	54.720275	144.582856	1004.859618	183.407070	145.312955	1003.233172	-63.205710	51.008671	522.875885	177.952604	30.077639	516.785795	62.833000	145.938943	741.189725	181.151425	137.028724	650.346829	140.840107	105.920046	650.550933	184.345109	58.366839	524.176060	-109.637972	55.307526	513.113541	9.759357	151.939311	777.188053	-88.823213	153.086675	675.403392	-53.940991	118.555729	676.642190	-103.606420	-8.500970	99.945820	146.573276	1.201114	111.946600	65.435880	60.654634	319.757440	135.309174	45.107796	226.939354	99.621111	35.071119	223.013670	157.292718	-6.039164	108.911337	-131.321166	5.064700	105.110511	-51.068181	64.773271	302.014041	-82.411429	47.782353	208.792839	-55.619303	53.398503	213.250604	-114.769091	-70.625693	49.578036	106.176297	138.498388	55.601101	81.384704	107.510023	51.025597	159.651798	-70.411704	51.515168	-104.850522	135.506161	53.404455	-76.461558	111.203228	49.926616	-153.469731	78.462360	1402.600234	70.372616	-4.532773	1422.016411	232.747707	16.856346	1439.353645	-107.022001	-0.487232	107.010924	-91.194673	-3.649928	105.946210	106.004578	73.395627	930.209443	-28.310847	72.870539	931.379184	149.053206	56.837183	518.644800	-49.939307	40.543155	519.830840	120.392802	
79	0.780000	-50.535316	1039.455904	54.715448	144.598953	1004.855944	183.392661	145.317000	1003.235244	-63.219505	51.018495	522.872844	177.955448	30.087562	516.783095	62.834003	145.955379	741.186398	181.142015	137.044298	650.345015	140.835069	105.937056	650.550409	184.340426	58.381950	524.179871	-109.646683	55.322771	513.118653	9.752568	151.954804	777.201420	-88.837041	153.095287	675.409791	-53.954914	118.565034	676.647895	-103.618751	-8.497688	99.948224	146.573484	1.202869	111.948842	65.438868	60.661207	319.757384	135.313571	45.114197	226.939095	99.625968	35.073477	223.012295	157.295770	-6.036305	108.914366	-131.321833	5.067789	105.115360	-51.067901	64.784304	302.016131	-82.418355	47.790409	208.798235	-55.621841	53.400655	213.246670	-114.772770	-70.618937	49.581199	106.171216	138.501509	55.595956	81.387317	107.512530	51.023187	159.653263	-70.411464	51.519668	-104.850204	135.509596	53.408847	-76.462887	111.203379	49.926643	-153.468801	78.506782	1402.601010	70.366246	-4.475301	1422.021789	232.744912	16.890580	1439.359441	-107.021383	-0.484258	107.014863	-91.194867	-3.647409	105.948533	106.006176	73.398476	930.214051	-28.322976	72.882057	931.379659	149.040676	56.852360	518.649262	-49.947058	40.553028	519.827969	120.394726	
80	0.790000	-50.523032	1039.463519	54.711621	144.614822	1004.851958	183.376267	145.318451	1003.236307	-63.236186	51.026449	522.871291	177.959093	30.094528	516.780810	62.835321	145.969938	741.182978	181.131479	137.058160	650.343667	140.830068	105.951985	650.549743	184.336138	58.394784	524.183478	-109.655769	55.338527	513.123051	9.745554	151.967791	777.214908	-88.852253	153.102694	675.415969	-53.971824	118.571080	676.653436	-103.632703	-8.494537	99.950581	146.574516	1.204793	111.951248	65.441878	60.666279	319.757564	135.318367	45.119485	226.938984	99.630996	35.075285	223.011478	157.299377	-6.033746	108.917132	-131.322462	5.070785	105.120059	-51.067499	64.794330	302.017976	-82.425294	47.798460	208.803154	-55.624465	53.403217	213.244501	-114.776249	-70.611154	49.584072	106.165007	138.504712	55.591820	81.390540	107.515214	51.020614	159.654812	-70.411104	51.523626	-104.849804	135.512184	53.409423	-76.462654	111.203570	49.926583	-153.467964	78.550248	1402.601329	70.356895	-4.419360	1422.027477	232.738159	16.926219	1439.364902	-107.024127	-0.481481	107.018595	-91.194980	-3.644872	105.950914	106.008197	73.398987	930.217681	-28.336941	72.892937	931.379658	149.026905	56.866655	518.653265	-49.955107	40.560488	519.826051	120.397207	
